<svg width="84" height="23" viewBox="0 0 84 23" fill="none" xmlns="http://www.w3.org/2000/svg">
<path d="M0 0C0.248125 7.17436 8.1252 7.1393 12.7641 10.7352C9.76214 9.43528 4.8418 9.72091 1.28013 7.41073C2.94157 12.81 8.86785 11.0324 13.2199 12.5C10.6281 12.247 7.20971 13.7104 3.97829 12.5528C6.83186 17.0506 10.5335 14.0463 14.1197 14.0729C12.3109 14.5338 10.4433 16.5499 7.94584 16.3608C10.9891 19.2899 12.5827 16.4455 14.7627 15.3554C14.76 15.3586 14.757 15.3618 14.7543 15.365C14.8414 15.3193 14.9342 15.2854 15.0303 15.2642C15.1032 15.248 15.1776 15.2392 15.2522 15.2379C15.7651 15.23 16.2303 15.5836 16.3452 16.1041C16.3943 16.3252 16.3737 16.5561 16.2864 16.7651C16.2833 16.7418 16.2793 16.7186 16.2744 16.6956C16.1714 16.2289 15.7093 15.9339 15.2427 16.0369C14.776 16.1399 14.481 16.602 14.584 17.0687C14.5982 17.132 14.6196 17.1936 14.6476 17.2522C14.6405 17.2474 14.633 17.2428 14.626 17.2378C14.6474 17.2724 14.6705 17.3058 14.6944 17.3386C14.7405 17.4127 14.7975 17.4794 14.8635 17.5365C15.1372 17.8068 15.5084 17.9799 15.923 17.9984C16.811 18.038 17.563 17.3496 17.6026 16.4616C17.6347 15.74 17.1875 15.1083 16.542 14.8755C16.5416 14.8754 16.5412 14.8756 16.5409 14.8755C16.1731 14.6702 15.8519 14.4211 15.5811 14.1437C16.1969 14.4188 16.9448 14.2847 17.425 13.7597C18.025 13.1039 17.9802 12.0862 17.3243 11.4862C16.9505 11.1444 16.4597 11.0124 15.9949 11.0831C15.8722 11.09 15.7496 11.1262 15.6387 11.1971C15.2936 11.4173 15.1929 11.8755 15.4131 12.2205C15.6333 12.5655 16.0915 12.6663 16.4364 12.4461C16.6186 12.3298 16.7316 12.1478 16.7664 11.9506C16.8622 12.3889 16.6833 12.8599 16.2829 13.1155C15.7694 13.4432 15.087 13.293 14.7592 12.7796C14.6583 12.6215 14.5996 12.4401 14.5889 12.2529C14.5888 12.2517 14.5877 12.2505 14.5877 12.2493C14.5743 12.1678 14.5647 12.0858 14.5589 12.0034C14.1779 6.36521 4.7821 5.63048 3.83705e-05 3.84437e-05L0 0Z" fill="#FF4196"/>
<path d="M22.5272 18V5.28C22.5272 4.56 22.4232 3.984 22.2152 3.552C22.0232 3.104 21.5672 2.88 20.8472 2.88H20.6072V2.16H27.2072C27.6392 2.16 28.1352 2.192 28.6952 2.256C29.2552 2.304 29.8232 2.416 30.3992 2.592C30.9912 2.768 31.5352 3.032 32.0312 3.384C32.5272 3.736 32.9272 4.208 33.2312 4.8C33.5352 5.376 33.6872 6.104 33.6872 6.984C33.6872 7.816 33.5352 8.512 33.2312 9.072C32.9272 9.616 32.5352 10.056 32.0552 10.392C31.5912 10.728 31.0952 10.984 30.5672 11.16C30.0392 11.336 29.5352 11.456 29.0552 11.52C28.5912 11.568 28.2152 11.592 27.9272 11.592H25.6472V18H22.5272ZM25.6472 10.632H27.0872C27.5032 10.632 27.9032 10.576 28.2872 10.464C28.6712 10.352 29.0152 10.152 29.3192 9.864C29.6232 9.576 29.8632 9.192 30.0392 8.712C30.2312 8.216 30.3272 7.6 30.3272 6.864C30.3272 6.128 30.2312 5.52 30.0392 5.04C29.8632 4.544 29.6232 4.16 29.3192 3.888C29.0312 3.6 28.7032 3.4 28.3352 3.288C27.9672 3.176 27.5912 3.12 27.2072 3.12C27.0312 3.12 26.8152 3.128 26.5592 3.144C26.3192 3.16 26.0152 3.208 25.6472 3.288V10.632ZM40.4415 18.24C39.2575 18.24 38.2335 17.984 37.3695 17.472C36.5055 16.944 35.8415 16.232 35.3775 15.336C34.9135 14.44 34.6815 13.448 34.6815 12.36C34.6815 11.256 34.9135 10.264 35.3775 9.384C35.8415 8.488 36.5055 7.784 37.3695 7.272C38.2335 6.744 39.2575 6.48 40.4415 6.48C41.6415 6.48 42.6655 6.744 43.5135 7.272C44.3775 7.784 45.0415 8.488 45.5055 9.384C45.9695 10.264 46.2015 11.256 46.2015 12.36C46.2015 13.448 45.9695 14.44 45.5055 15.336C45.0415 16.232 44.3775 16.944 43.5135 17.472C42.6655 17.984 41.6415 18.24 40.4415 18.24ZM40.4415 17.16C41.0015 17.16 41.4655 16.952 41.8335 16.536C42.2175 16.12 42.4975 15.552 42.6735 14.832C42.8655 14.096 42.9615 13.272 42.9615 12.36C42.9615 11.432 42.8655 10.608 42.6735 9.888C42.4975 9.168 42.2175 8.6 41.8335 8.184C41.4655 7.768 41.0015 7.56 40.4415 7.56C39.8815 7.56 39.4095 7.768 39.0255 8.184C38.6575 8.6 38.3775 9.168 38.1855 9.888C38.0095 10.608 37.9215 11.432 37.9215 12.36C37.9215 13.272 38.0095 14.096 38.1855 14.832C38.3775 15.552 38.6575 16.12 39.0255 16.536C39.4095 16.952 39.8815 17.16 40.4415 17.16ZM53.4677 18.24C52.3477 18.24 51.3717 17.984 50.5397 17.472C49.7077 16.96 49.0677 16.264 48.6197 15.384C48.1717 14.488 47.9477 13.48 47.9477 12.36C47.9477 11.08 48.1797 10.008 48.6437 9.144C49.1077 8.264 49.7397 7.6 50.5397 7.152C51.3397 6.704 52.2357 6.48 53.2277 6.48C54.2197 6.48 55.1157 6.68 55.9157 7.08C56.7157 7.48 57.3477 8.04 57.8117 8.76C58.2757 9.48 58.5077 10.32 58.5077 11.28L58.4117 12.792H51.1877C51.1877 14.376 51.4277 15.504 51.9077 16.176C52.4037 16.832 53.0437 17.16 53.8277 17.16C54.6597 17.16 55.3317 16.968 55.8437 16.584C56.3717 16.2 56.8437 15.728 57.2597 15.168L58.0037 15.72C57.7797 16.072 57.4757 16.448 57.0917 16.848C56.7237 17.232 56.2437 17.56 55.6517 17.832C55.0757 18.104 54.3477 18.24 53.4677 18.24ZM51.1877 11.712H55.2677C55.2677 10.128 55.0757 9.04 54.6917 8.448C54.3237 7.856 53.8357 7.56 53.2277 7.56C52.8757 7.56 52.5397 7.688 52.2197 7.944C51.9157 8.2 51.6677 8.632 51.4757 9.24C51.2837 9.832 51.1877 10.656 51.1877 11.712ZM64.7666 18.24C63.7746 18.24 62.9586 18.152 62.3186 17.976C61.6946 17.8 61.2226 17.56 60.9026 17.256C60.6146 16.984 60.4466 16.592 60.3986 16.08C60.3506 15.568 60.3266 15.008 60.3266 14.4H61.1666C61.2946 15.168 61.6066 15.824 62.1026 16.368C62.5986 16.896 63.3266 17.16 64.2866 17.16C65.1826 17.16 65.8066 17.008 66.1586 16.704C66.5106 16.384 66.6866 15.992 66.6866 15.528C66.6866 15.064 66.4786 14.696 66.0626 14.424C65.6466 14.136 65.1346 13.856 64.5266 13.584L63.2786 13.056C62.3186 12.64 61.5666 12.168 61.0226 11.64C60.4786 11.112 60.2066 10.456 60.2066 9.672C60.2066 8.632 60.6386 7.84 61.5026 7.296C62.3666 6.752 63.4546 6.48 64.7666 6.48C65.7586 6.48 66.5666 6.568 67.1906 6.744C67.8306 6.92 68.3106 7.16 68.6306 7.464C68.9186 7.736 69.0866 8.128 69.1346 8.64C69.1826 9.152 69.2066 9.712 69.2066 10.32H68.3666C68.2386 9.552 67.9266 8.904 67.4306 8.376C66.9346 7.832 66.2066 7.56 65.2466 7.56C64.5266 7.56 64.0066 7.72 63.6866 8.04C63.3666 8.344 63.2066 8.728 63.2066 9.192C63.2066 9.624 63.3586 9.976 63.6626 10.248C63.9666 10.504 64.3826 10.744 64.9106 10.968L66.3506 11.568C67.4546 12.032 68.2866 12.52 68.8466 13.032C69.4066 13.528 69.6866 14.2 69.6866 15.048C69.6866 16.088 69.2226 16.88 68.2946 17.424C67.3666 17.968 66.1906 18.24 64.7666 18.24ZM72.7052 22.8V21.96C73.5372 21.96 74.2332 21.8 74.7932 21.48C75.3532 21.16 75.8092 20.544 76.1612 19.632L76.6652 18.336L72.3452 8.88C72.0892 8.288 71.7692 7.84 71.3852 7.536C71.0172 7.216 70.5932 7.024 70.1132 6.96V6.48H72.2252C72.9452 6.48 73.5772 6.656 74.1212 7.008C74.6652 7.344 75.0732 7.808 75.3452 8.4L78.1052 14.448L81.0332 6.72H82.3052L77.4572 19.56C77.1372 20.424 76.7852 21.088 76.4012 21.552C76.0332 22.032 75.6252 22.36 75.1772 22.536C74.7292 22.712 74.2252 22.8 73.6652 22.8H72.7052Z" fill="#8F0C3B"/>
</svg>
